<svg width="134" height="40" viewBox="0 0 134 40" fill="none" xmlns="http://www.w3.org/2000/svg">
<rect width="134" height="40" rx="6" fill="#222222"/>
<path d="M46.152 26H48.408L44.984 14.944H42.376L38.936 26H41.112L41.8 23.44H45.464L46.152 26ZM42.232 21.84L43.64 16.56L45.048 21.84H42.232ZM53.9121 17.296C53.0321 17.296 52.1361 17.696 51.4641 18.576L51.3521 17.536H49.5601V29.488L51.6081 29.264V25.328C52.1361 25.952 52.8561 26.24 53.7361 26.24C55.8641 26.24 57.0801 24.336 57.0801 21.744C57.0801 19.04 56.1521 17.296 53.9121 17.296ZM53.1441 24.672C52.5201 24.672 51.9921 24.384 51.6081 23.808V19.984C52.0081 19.328 52.6001 18.832 53.3041 18.832C54.3601 18.832 54.9361 19.616 54.9361 21.76C54.9361 23.808 54.2801 24.672 53.1441 24.672ZM63.4434 17.296C62.5634 17.296 61.6674 17.696 60.9954 18.576L60.8834 17.536H59.0914V29.488L61.1394 29.264V25.328C61.6674 25.952 62.3874 26.24 63.2674 26.24C65.3954 26.24 66.6114 24.336 66.6114 21.744C66.6114 19.04 65.6834 17.296 63.4434 17.296ZM62.6754 24.672C62.0514 24.672 61.5234 24.384 61.1394 23.808V19.984C61.5394 19.328 62.1314 18.832 62.8354 18.832C63.8914 18.832 64.4674 19.616 64.4674 21.76C64.4674 23.808 63.8114 24.672 62.6754 24.672ZM75.8706 14.704C73.6946 14.704 72.1106 15.92 72.1106 17.76C72.1106 19.44 73.1186 20.368 75.4546 21.088C77.1826 21.616 77.6466 22.032 77.6466 22.96C77.6466 24.032 76.7826 24.608 75.5986 24.608C74.4626 24.608 73.5666 24.192 72.7986 23.472L71.6626 24.72C72.5746 25.616 73.8866 26.24 75.6626 26.24C78.2866 26.24 79.8546 24.832 79.8546 22.848C79.8546 20.768 78.5106 19.968 76.5746 19.36C74.7186 18.784 74.2866 18.432 74.2866 17.632C74.2866 16.768 75.0066 16.32 76.0146 16.32C76.9106 16.32 77.6786 16.608 78.4626 17.28L79.5186 16.064C78.5746 15.184 77.4866 14.704 75.8706 14.704ZM85.7038 24.272C85.3358 24.496 85.0158 24.592 84.6958 24.592C84.0718 24.592 83.7998 24.256 83.7998 23.424V19.008H85.5438L85.7678 17.536H83.7998V15.424L81.7518 15.664V17.536H80.4238V19.008H81.7518V23.472C81.7518 25.28 82.6318 26.224 84.3118 26.24C85.0477 26.24 85.8158 26.032 86.4238 25.6L85.7038 24.272ZM90.8595 17.296C88.3475 17.296 86.8755 19.104 86.8755 21.76C86.8755 24.544 88.3475 26.24 90.8595 26.24C93.3555 26.24 94.8275 24.432 94.8275 21.76C94.8275 18.992 93.3555 17.296 90.8595 17.296ZM90.8755 18.848C92.0595 18.848 92.6995 19.744 92.6995 21.76C92.6995 23.776 92.0595 24.688 90.8595 24.688C89.6595 24.688 89.0355 23.792 89.0355 21.76C89.0355 19.76 89.6755 18.848 90.8755 18.848ZM100.939 17.312C99.9473 17.312 99.1313 17.984 98.7313 19.2L98.5393 17.536H96.7633V26H98.8113V21.488C99.1313 20.064 99.6432 19.312 100.683 19.312C100.971 19.312 101.179 19.344 101.435 19.408L101.787 17.424C101.515 17.344 101.227 17.312 100.939 17.312ZM109.832 21.568C109.832 18.896 108.472 17.296 106.12 17.296C103.72 17.296 102.36 19.248 102.36 21.824C102.36 24.496 103.768 26.24 106.392 26.24C107.656 26.24 108.696 25.776 109.528 25.104L108.664 23.936C107.928 24.448 107.32 24.688 106.568 24.688C105.448 24.688 104.632 24.128 104.488 22.4H109.8C109.816 22.176 109.832 21.84 109.832 21.568ZM107.816 21.072H104.472C104.6 19.392 105.192 18.752 106.168 18.752C107.32 18.752 107.816 19.584 107.816 20.976V21.072Z" fill="white"/>
<path d="M29.5808 25.8332C29.2218 26.6775 28.7967 27.4547 28.3043 28.1692C27.633 29.1433 27.0834 29.8176 26.6598 30.192C26.0032 30.8066 25.2997 31.1213 24.5464 31.1392C24.0056 31.1392 23.3534 30.9826 22.5942 30.6649C21.8325 30.3486 21.1325 30.192 20.4925 30.192C19.8212 30.192 19.1013 30.3486 18.3312 30.6649C17.56 30.9826 16.9387 31.1482 16.4637 31.1646C15.7413 31.1959 15.0213 30.8722 14.3025 30.192C13.8438 29.7847 13.27 29.0866 12.5826 28.0976C11.8451 27.0415 11.2388 25.8168 10.7637 24.4205C10.255 22.9124 10 21.452 10 20.0381C10 18.4186 10.3438 17.0217 11.0325 15.8511C11.5738 14.9109 12.2939 14.1692 13.1951 13.6248C14.0963 13.0803 15.0701 12.8028 16.1187 12.7851C16.6925 12.7851 17.445 12.9657 18.38 13.3207C19.3125 13.677 19.9112 13.8576 20.1737 13.8576C20.3699 13.8576 21.035 13.6464 22.1625 13.2253C23.2288 12.8347 24.1287 12.673 24.8659 12.7367C26.8636 12.9008 28.3644 13.7023 29.3625 15.1463C27.5758 16.2481 26.6921 17.7913 26.7097 19.771C26.7258 21.3129 27.2754 22.5961 28.3556 23.615C28.8451 24.0879 29.3918 24.4533 30 24.7129C29.8681 25.1022 29.7289 25.4752 29.5808 25.8332ZM24.9993 7.48347C24.9993 8.69208 24.5654 9.82056 23.7007 10.8651C22.6572 12.1068 21.395 12.8243 20.0262 12.7111C20.0088 12.5661 19.9987 12.4135 19.9987 12.2531C19.9987 11.0928 20.4949 9.85114 21.3762 8.83587C21.8162 8.32182 22.3758 7.8944 23.0544 7.55343C23.7315 7.21756 24.372 7.03181 24.9744 7C24.9919 7.16157 24.9993 7.32315 24.9993 7.48346V7.48347Z" fill="white"/>
</svg>
