<svg width="24" height="24" viewBox="0 0 24 24" fill="none" xmlns="http://www.w3.org/2000/svg">
<path d="M21.1406 17.5312C20.3963 16.7812 18.5934 15.6867 17.7188 15.2456C16.5797 14.6718 16.4859 14.6249 15.5906 15.2901C14.9934 15.734 14.5964 16.1306 13.8975 15.9815C13.1986 15.8324 11.6799 14.992 10.35 13.6663C9.02016 12.3407 8.13094 10.7779 7.98141 10.0813C7.83188 9.38478 8.235 8.99244 8.67469 8.39385C9.29438 7.5501 9.2475 7.40947 8.71782 6.27041C8.30485 5.38447 7.17844 3.59853 6.42563 2.85791C5.62032 2.06244 5.62032 2.20306 5.10141 2.41869C4.67896 2.59643 4.27367 2.81249 3.89063 3.06416C3.14063 3.56244 2.72438 3.97635 2.43328 4.59838C2.14219 5.22041 2.01141 6.67869 3.51469 9.40963C5.01797 12.1406 6.07266 13.537 8.25563 15.7138C10.4386 17.8907 12.1172 19.0612 14.5711 20.4374C17.6067 22.1376 18.7711 21.8062 19.395 21.5156C20.0189 21.2249 20.4347 20.8124 20.9339 20.0624C21.1862 19.68 21.4028 19.2752 21.5808 18.8531C21.7969 18.336 21.9375 18.336 21.1406 17.5312Z" stroke="#222222" stroke-width="2" stroke-miterlimit="10"/>
</svg>
