<svg width="134" height="40" viewBox="0 0 134 40" fill="none" xmlns="http://www.w3.org/2000/svg">
<rect width="134" height="40" rx="6" fill="#222222"/>
<path d="M44.728 14.704C42.008 14.704 39.688 16.72 39.688 20.464C39.688 24.256 41.416 26.24 44.488 26.24C45.992 26.24 47.288 25.824 48.376 25.152V19.744H44.408L44.632 21.312H46.296V24.192C45.768 24.496 45.16 24.624 44.536 24.624C42.808 24.624 41.912 23.488 41.912 20.464C41.912 17.488 43.256 16.304 44.824 16.304C45.768 16.304 46.392 16.592 47.128 17.2L48.28 16C47.352 15.2 46.28 14.704 44.728 14.704ZM53.8751 17.296C51.3631 17.296 49.8911 19.104 49.8911 21.76C49.8911 24.544 51.3631 26.24 53.8751 26.24C56.3711 26.24 57.8431 24.432 57.8431 21.76C57.8431 18.992 56.3711 17.296 53.8751 17.296ZM53.8911 18.848C55.0751 18.848 55.7151 19.744 55.7151 21.76C55.7151 23.776 55.0751 24.688 53.8751 24.688C52.6751 24.688 52.0511 23.792 52.0511 21.76C52.0511 19.76 52.6911 18.848 53.8911 18.848ZM63.2189 17.296C60.7069 17.296 59.2349 19.104 59.2349 21.76C59.2349 24.544 60.7069 26.24 63.2189 26.24C65.7149 26.24 67.1869 24.432 67.1869 21.76C67.1869 18.992 65.7149 17.296 63.2189 17.296ZM63.2349 18.848C64.4189 18.848 65.0589 19.744 65.0589 21.76C65.0589 23.776 64.4189 24.688 63.2189 24.688C62.0189 24.688 61.3949 23.792 61.3949 21.76C61.3949 19.76 62.0349 18.848 63.2349 18.848ZM75.9706 16.352C74.9466 16.896 74.0186 17.344 72.0346 17.296C69.9706 17.296 68.5146 18.496 68.5146 20.336C68.5146 21.424 68.9626 22.176 70.0026 22.72C69.3786 23.104 69.0266 23.696 69.0266 24.288C69.0266 25.168 69.7306 25.92 71.4426 25.92H72.7226C73.6506 25.92 74.1466 26.304 74.1466 26.928C74.1466 27.6 73.6666 28.048 72.0186 28.048C70.3386 28.048 69.9706 27.68 69.9706 26.832H68.1306C68.1306 28.528 68.9786 29.488 71.9866 29.488C74.7546 29.488 76.2106 28.48 76.2106 26.784C76.2106 25.392 74.9946 24.384 73.1226 24.384H71.8266C70.9786 24.384 70.8186 24.096 70.8186 23.792C70.8186 23.536 70.9466 23.312 71.1546 23.168C71.4746 23.264 71.8106 23.296 72.1626 23.296C74.2906 23.296 75.5866 22.096 75.5866 20.448C75.5866 19.392 75.0746 18.736 74.0346 18.272C75.0426 18.272 75.8426 18.208 76.4826 17.984L75.9706 16.352ZM72.0666 18.688C73.0746 18.688 73.5866 19.216 73.5866 20.288C73.5866 21.36 73.0586 21.968 72.0826 21.968C71.1386 21.968 70.5786 21.328 70.5786 20.304C70.5786 19.328 71.1226 18.688 72.0666 18.688ZM79.7164 26.24C80.2444 26.24 80.7244 26.112 81.0764 25.952L80.6444 24.512C80.5004 24.56 80.3564 24.592 80.1644 24.592C79.8284 24.592 79.6844 24.4 79.6844 24V13.92L77.6364 14.144V24.064C77.6364 25.456 78.4204 26.24 79.7164 26.24ZM89.2069 21.568C89.2069 18.896 87.8469 17.296 85.4949 17.296C83.0949 17.296 81.7349 19.248 81.7349 21.824C81.7349 24.496 83.1429 26.24 85.7669 26.24C87.0309 26.24 88.0709 25.776 88.9029 25.104L88.0389 23.936C87.3029 24.448 86.6949 24.688 85.9429 24.688C84.8229 24.688 84.0069 24.128 83.8629 22.4H89.1749C89.1909 22.176 89.2069 21.84 89.2069 21.568ZM87.1909 21.072H83.8469C83.9749 19.392 84.5669 18.752 85.5429 18.752C86.6949 18.752 87.1909 19.584 87.1909 20.976V21.072ZM98.451 14.944H95.171V26H97.299V22.144H98.579C101.091 22.144 102.915 21.008 102.915 18.464C102.915 16.08 101.219 14.944 98.451 14.944ZM98.435 20.56H97.299V16.496H98.419C99.875 16.496 100.707 17.072 100.707 18.464C100.707 20.08 99.827 20.56 98.435 20.56ZM106.56 26.24C107.088 26.24 107.568 26.112 107.92 25.952L107.488 24.512C107.344 24.56 107.2 24.592 107.008 24.592C106.672 24.592 106.528 24.4 106.528 24V13.92L104.48 14.144V24.064C104.48 25.456 105.264 26.24 106.56 26.24ZM115.551 23.76V20.208C115.551 18.336 114.543 17.296 112.287 17.296C111.327 17.296 110.271 17.504 109.215 17.904L109.695 19.296C110.543 19.008 111.359 18.848 111.935 18.848C113.039 18.848 113.519 19.216 113.519 20.32V20.8H112.463C109.999 20.8 108.607 21.792 108.607 23.632C108.607 25.168 109.647 26.24 111.343 26.24C112.351 26.24 113.279 25.872 113.871 24.976C114.207 25.792 114.815 26.128 115.743 26.208L116.175 24.848C115.759 24.688 115.551 24.448 115.551 23.76ZM111.887 24.752C111.119 24.752 110.687 24.288 110.687 23.472C110.687 22.48 111.343 22 112.687 22H113.519V23.728C113.135 24.384 112.591 24.752 111.887 24.752ZM124.705 17.536H122.593L120.689 24.64L118.833 17.536H116.657L119.361 26H120.049C119.585 27.2 119.025 27.744 117.345 28L117.569 29.488C120.081 29.296 121.329 28.016 121.953 26.032L124.705 17.536Z" fill="white"/>
<path d="M11.3898 7.39215C11.145 7.69609 11.001 8.16796 11.001 8.77892V30.6046C11.001 31.2166 11.1458 31.6875 11.3898 31.9914L11.4521 32.0625L21.867 19.836V19.6918V19.5475L11.4512 7.32106L11.3898 7.39215Z" fill="url(#paint0_linear)"/>
<path d="M25.3378 23.9129L21.8668 19.836V19.6918V19.5475L25.3387 15.4717L25.4168 15.5242L29.5303 18.2679C30.7054 19.052 30.7054 20.3336 29.5303 21.1177L25.4168 23.8614L25.3378 23.9129Z" fill="url(#paint1_linear)"/>
<path d="M25.4168 23.8603L21.8659 19.6918L11.3897 31.9914C11.7767 32.4725 12.4165 32.5323 13.137 32.0522L25.4168 23.8603Z" fill="url(#paint2_linear)"/>
<path d="M25.4168 15.5232L13.1362 7.33238C12.4156 6.85226 11.7767 6.91202 11.3888 7.39317L21.8659 19.6928L25.4168 15.5232Z" fill="url(#paint3_linear)"/>
<path opacity="0.2" d="M25.3387 23.7686L13.1361 31.9079C12.4533 32.3633 11.8434 32.3324 11.452 31.9182L11.3897 31.9914L11.452 32.0625C11.8434 32.4767 12.4533 32.5076 13.1361 32.0522L25.4168 23.8603L25.3387 23.7686Z" fill="#222222"/>
<path opacity="0.12" d="M11.3898 31.8472C11.145 31.5432 11.001 31.0713 11.001 30.4604V30.6046C11.001 31.2156 11.1458 31.6875 11.3898 31.9914L11.4521 31.9182L11.3898 31.8472Z" fill="#222222"/>
<path opacity="0.12" d="M29.5294 20.9724L25.3387 23.7686L25.4168 23.8603L29.5303 21.1167C30.1174 20.7252 30.4114 20.209 30.4114 19.6918C30.3614 20.1595 30.063 20.617 29.5294 20.9724Z" fill="#222222"/>
<path opacity="0.25" d="M13.1361 7.47662L29.5294 18.4111C30.0621 18.7666 30.3614 19.224 30.4105 19.6918C30.4105 19.1756 30.1165 18.6584 29.5294 18.2669L13.1361 7.33238C11.961 6.54833 11 7.19948 11 8.77994V8.92418C11 7.34372 11.961 6.6936 13.1361 7.47662Z" fill="white"/>
<defs>
<linearGradient id="paint0_linear" x1="20.9428" y1="8.54893" x2="4.59139" y2="22.4775" gradientUnits="userSpaceOnUse">
<stop stop-color="#00A0FF"/>
<stop offset="0.00657445" stop-color="#00A1FF"/>
<stop offset="0.2601" stop-color="#00BEFF"/>
<stop offset="0.5122" stop-color="#00D2FF"/>
<stop offset="0.7604" stop-color="#00DFFF"/>
<stop offset="1" stop-color="#00E3FF"/>
</linearGradient>
<linearGradient id="paint1_linear" x1="31.0595" y1="19.6925" x2="10.7185" y2="19.6925" gradientUnits="userSpaceOnUse">
<stop stop-color="#FFE000"/>
<stop offset="0.4087" stop-color="#FFBD00"/>
<stop offset="0.7754" stop-color="#FFA500"/>
<stop offset="1" stop-color="#FF9C00"/>
</linearGradient>
<linearGradient id="paint2_linear" x1="23.4875" y1="21.957" x2="1.31365" y2="40.8452" gradientUnits="userSpaceOnUse">
<stop stop-color="#FF3A44"/>
<stop offset="1" stop-color="#C31162"/>
</linearGradient>
<linearGradient id="paint3_linear" x1="8.75127" y1="0.127391" x2="18.6528" y2="8.56177" gradientUnits="userSpaceOnUse">
<stop stop-color="#32A071"/>
<stop offset="0.0685" stop-color="#2DA771"/>
<stop offset="0.4762" stop-color="#15CF74"/>
<stop offset="0.8009" stop-color="#06E775"/>
<stop offset="1" stop-color="#00F076"/>
</linearGradient>
</defs>
</svg>
