<svg width="372" height="338" viewBox="0 0 372 338" fill="none" xmlns="http://www.w3.org/2000/svg">
<g clip-path="url(#clip0)">
<path d="M4 44C4 20.2518 23.2518 1 47 1H325C348.748 1 368 20.2518 368 44V356H4V44Z" stroke="#222222" stroke-width="2"/>
<mask id="path-2-inside-1" fill="white">
<path fill-rule="evenodd" clip-rule="evenodd" d="M48 12C29.2223 12 14 27.2223 14 46V357H358V46C358 27.2223 342.778 12 324 12H277V20.0414C277 29.9826 268.941 38.0414 259 38.0414H112C102.059 38.0414 94 29.9825 94 20.0414V12H48Z"/>
</mask>
<path fill-rule="evenodd" clip-rule="evenodd" d="M48 12C29.2223 12 14 27.2223 14 46V357H358V46C358 27.2223 342.778 12 324 12H277V20.0414C277 29.9826 268.941 38.0414 259 38.0414H112C102.059 38.0414 94 29.9825 94 20.0414V12H48Z" fill="#F7F7F7"/>
<path d="M14 357H12V359H14V357ZM358 357V359H360V357H358ZM277 12V10H275V12H277ZM94 12H96V10H94V12ZM16 46C16 28.3269 30.3269 14 48 14V10C28.1178 10 12 26.1178 12 46H16ZM16 357V46H12V357H16ZM358 355H14V359H358V355ZM356 46V357H360V46H356ZM324 14C341.673 14 356 28.3269 356 46H360C360 26.1177 343.882 10 324 10V14ZM277 14H324V10H277V14ZM275 12V20.0414H279V12H275ZM275 20.0414C275 28.878 267.837 36.0414 259 36.0414V40.0414C270.046 40.0414 279 31.0871 279 20.0414H275ZM259 36.0414H112V40.0414H259V36.0414ZM112 36.0414C103.163 36.0414 96 28.878 96 20.0414H92C92 31.0871 100.954 40.0414 112 40.0414V36.0414ZM96 20.0414V12H92V20.0414H96ZM48 14H94V10H48V14Z" fill="#222222" mask="url(#path-2-inside-1)"/>
<rect x="151" y="19" width="46" height="6" rx="3" fill="#222222"/>
<circle cx="215" cy="22" r="7" fill="#222222"/>
<rect y="98" width="5" height="31" rx="2.5" fill="#222222"/>
<rect y="152" width="5" height="57" rx="2.5" fill="#222222"/>
<rect y="225" width="5" height="58" rx="2.5" fill="#222222"/>
<rect x="367" y="175" width="5" height="89" rx="2.5" fill="#222222"/>
</g>
<defs>
<clipPath id="clip0">
<rect width="372" height="338" fill="white"/>
</clipPath>
</defs>
</svg>
